# xmcd CD database file
#
# Track frame offsets:
#	150
#	16227
#	35895
#	68605
#	85462
#	104430
#	120202
#	138890
#	161507
#	190367
#	213672
#	225855
#	240692
#	257612
#
# Disc length: 3817 seconds
#
# Revision: 2
# Processed by: cddbd v1.5PL3 Copyright (c) Steve Scherf et al.
# Submitted via: CDex 1.51
#
DISCID=b50ee70e
DTITLE=Penicillin - Missing Link
DYEAR=1996
DGENRE=Rock
TTITLE0=Chaos
TTITLE1=Brand New Lover
TTITLE2=VANITY
TTITLE3=Miss Cool (New Mix)
TTITLE4=マゾヒスト
TTITLE5=Nightmare Before Christmas
TTITLE6=FIORE
TTITLE7=Melody
TTITLE8=螺旋階段 (New Mix)
TTITLE9=Virginal
TTITLE10=Imitation Queen
TTITLE11=In the kingdom of the Moonlight
TTITLE12=Miss Cool (Instrumental)
TTITLE13=螺旋階段 (Instrumental)
EXTD=YEAR: 1996
EXTT0=
EXTT1=
EXTT2=
EXTT3=
EXTT4=
EXTT5=
EXTT6=
EXTT7=
EXTT8=
EXTT9=
EXTT10=
EXTT11=
EXTT12=
EXTT13=
PLAYORDER=
